<svg width="18" height="18" viewBox="0 0 18 18" fill="none" xmlns="http://www.w3.org/2000/svg">
<path id="moon" d="M17.4396 11.1362L17.5956 10.9802L17.4396 11.1362C17.4661 11.1627 17.4849 11.1959 17.4939 11.2323C17.4989 11.2523 17.5008 11.2729 17.4997 11.2933L17.4862 11.3373C16.9469 13.0983 15.8661 14.6443 14.3975 15.7554C13.1087 16.7255 11.5751 17.3172 9.9688 17.464C8.36231 17.6108 6.74669 17.3069 5.30329 16.5863C3.85988 15.8658 2.64581 14.7571 1.79736 13.3847C0.948902 12.0123 0.499652 10.4305 0.500046 8.8169L0.500041 8.81524C0.494243 6.93277 1.10608 5.1004 2.24165 3.59924L2.24171 3.59916C3.35259 2.13005 4.89841 1.04883 6.65917 0.509336L6.65986 0.509123C6.69565 0.498101 6.73376 0.497046 6.7701 0.50607C6.80645 0.515095 6.83965 0.533861 6.86615 0.560364C6.89265 0.586869 6.91143 0.620109 6.92047 0.656513L7.40574 0.536062L6.92047 0.656514C6.92951 0.692919 6.92845 0.731101 6.91741 0.766947L6.91667 0.7694C6.48348 2.20261 6.44716 3.72651 6.81158 5.17873C7.17599 6.63096 7.92748 7.9571 8.98599 9.01585C10.0445 10.0746 11.3704 10.8263 12.8223 11.1908C14.2743 11.5553 15.7979 11.519 17.2309 11.0857L17.2333 11.0849C17.2691 11.0739 17.3072 11.0728 17.3436 11.0819C17.3799 11.0909 17.4131 11.1097 17.4396 11.1362Z" stroke="black"/>
</svg>
