<svg width="47" height="37" viewBox="0 0 47 37" fill="none" xmlns="http://www.w3.org/2000/svg">
<g clip-path="url(#clip0_7_60)">
<path d="M10.2082 7.61528C12.4997 7.61528 14.3573 5.91054 14.3573 3.80764C14.3573 1.70474 12.4997 0 10.2082 0C7.91675 0 6.05916 1.70474 6.05916 3.80764C6.05916 5.91054 7.91675 7.61528 10.2082 7.61528Z" fill="#0066FF"/>
<path d="M46.813 20.3251C46.5471 21.8658 45.9184 23.2828 45.0254 24.5328C42.5673 27.9773 38.1168 30.1559 33.7904 30.1559H32.0334L30.3845 37H24.2495L25.8985 30.1559L27.2525 24.5328L28.945 17.5055H35.0799L33.3874 24.5328H34.108L34.1112 24.5231C34.2127 24.5296 34.3159 24.5328 34.4191 24.5328C36.5726 24.5328 38.7986 23.4258 40.0221 21.8851C40.4669 21.326 40.7797 20.6914 40.9118 20.0022C41.0376 19.3531 41.0488 18.5594 40.8667 17.8124C40.5459 16.4837 39.6062 15.4266 37.6106 15.4266C37.5526 15.4266 37.493 15.4266 37.4333 15.4298L37.4349 15.4266H22.5651L22.4797 15.7816L21.8945 18.2092L21.4787 19.9395L20.6727 23.2845L20.6405 23.4194C20.6308 23.4708 20.626 23.5238 20.626 23.5769C20.626 24.1054 21.0547 24.5328 21.5851 24.5328H25.1071L24.8379 25.6542C24.7911 25.9643 24.7186 26.2663 24.6203 26.5571L23.7531 30.1559H19.5976C19.4041 30.1559 19.2123 30.1462 19.0237 30.1254C16.3689 29.8394 14.3008 27.5998 14.3008 24.8766C14.3008 24.7609 14.3041 24.6469 14.3121 24.5328C14.3266 24.3079 14.3556 24.0878 14.3976 23.8709C14.425 23.7215 14.4604 23.5753 14.5023 23.4307C14.5023 23.4258 14.5039 23.4226 14.5056 23.4178L15.7612 18.2092L16.4318 15.4266L16.9283 13.3637L17.3216 11.7282H12.6245L12.4649 12.3885L11.7331 15.4266L11.0625 18.2092L8.57212 28.5493H10.5983V30.1559H0V28.5493H2.4372L4.9276 18.2092L6.48954 11.7282V11.7266C5.61105 11.6784 4.6971 11.6462 3.75091 11.6382C3.75091 11.2912 3.75091 10.0766 3.75091 10.0766C3.75091 10.0766 4.99369 10.1248 6.90864 9.99145C7.12302 9.97699 7.34707 9.95931 7.57758 9.94003C7.6614 9.932 7.74522 9.92558 7.83226 9.91754C8.02569 9.89987 8.22395 9.88059 8.42705 9.8581V9.80347H8.92513C9.00734 9.79383 9.09116 9.7842 9.17498 9.77295C9.34262 9.75367 9.51348 9.73118 9.68595 9.70708C10.1179 9.64763 10.5628 9.58016 11.0174 9.50143C11.1995 9.4693 11.3833 9.43717 11.5687 9.40182C11.7299 9.3713 11.8927 9.33917 12.0571 9.30703C12.2118 9.2749 12.3682 9.24277 12.5245 9.20903C12.6083 9.19136 12.6922 9.17208 12.7776 9.1528C12.942 9.11585 13.1064 9.0789 13.2724 9.03873C14.9633 8.63387 16.7155 8.07477 18.387 7.302C20.4358 6.35571 22.3588 5.08971 23.8869 3.39635C23.9449 3.39635 25.4633 3.39635 25.4633 3.39635L23.9191 9.80347H40.1929C44.2017 9.80347 46.0764 12.4576 46.7228 15.4266C47.0887 17.099 47.0645 18.8711 46.813 20.3251Z" fill="#0066FF"/>
</g>
<defs>
<clipPath id="clip0_7_60">
<rect width="47" height="37" fill="white"/>
</clipPath>
</defs>
</svg>
