<svg width="19" height="19" viewBox="0 0 19 19" fill="none" xmlns="http://www.w3.org/2000/svg">
<g id="magnifying-glass 1">
<path id="Vector" d="M17.0451 16.205L13.3289 12.4896C14.406 11.1965 14.9431 9.53789 14.8285 7.85887C14.7138 6.17986 13.9563 4.60967 12.7135 3.47495C11.4706 2.34023 9.83816 1.72835 8.15567 1.76658C6.47317 1.80482 4.87019 2.49024 3.68018 3.68024C2.49017 4.87025 1.80476 6.47324 1.76652 8.15573C1.72828 9.83822 2.34017 11.4707 3.47489 12.7135C4.60961 13.9564 6.17979 14.7139 7.85881 14.8285C9.53783 14.9432 11.1964 14.4061 12.4895 13.329L16.2049 17.0451C16.2601 17.1003 16.3256 17.1441 16.3976 17.1739C16.4697 17.2038 16.547 17.2191 16.625 17.2191C16.703 17.2191 16.7803 17.2038 16.8523 17.1739C16.9244 17.1441 16.9899 17.1003 17.0451 17.0451C17.1002 16.99 17.144 16.9245 17.1738 16.8524C17.2037 16.7803 17.2191 16.7031 17.2191 16.625C17.2191 16.547 17.2037 16.4698 17.1738 16.3977C17.144 16.3256 17.1002 16.2601 17.0451 16.205ZM2.96874 8.31255C2.96874 7.25565 3.28214 6.22249 3.86932 5.34372C4.4565 4.46494 5.29108 3.78002 6.26752 3.37557C7.24396 2.97111 8.31841 2.86529 9.355 3.07148C10.3916 3.27767 11.3438 3.78661 12.0911 4.53395C12.8384 5.28128 13.3474 6.23345 13.5536 7.27003C13.7597 8.30662 13.6539 9.38107 13.2495 10.3575C12.845 11.334 12.1601 12.1685 11.2813 12.7557C10.4025 13.3429 9.36938 13.6563 8.31249 13.6563C6.89572 13.6547 5.53743 13.0912 4.53562 12.0894C3.53381 11.0876 2.97031 9.72932 2.96874 8.31255Z" fill="#6F7985"/>
</g>
</svg>
