<svg width="26" height="26" viewBox="0 0 26 26" fill="none" xmlns="http://www.w3.org/2000/svg">
<g id="folder-open-fill">
<path id="Vector" d="M24.8828 11.2369C24.732 11.0278 24.5336 10.8576 24.304 10.7403C24.0745 10.6231 23.8203 10.5621 23.5625 10.5625H21.9375V8.9375C21.9375 8.50652 21.7663 8.0932 21.4615 7.78845C21.1568 7.48371 20.7435 7.3125 20.3125 7.3125H13.2712L10.4548 5.2C10.1731 4.98995 9.83128 4.87602 9.47984 4.875H4.0625C3.63152 4.875 3.2182 5.0462 2.91345 5.35095C2.6087 5.6557 2.4375 6.06902 2.4375 6.5V21.125C2.4375 21.3405 2.5231 21.5472 2.67548 21.6995C2.82785 21.8519 3.03451 21.9375 3.25 21.9375H21.4398C21.6104 21.9375 21.7766 21.8839 21.9149 21.7842C22.0533 21.6844 22.1568 21.5437 22.2107 21.382L25.1042 12.7014C25.1856 12.4572 25.2079 12.1971 25.1695 11.9425C25.131 11.688 25.0327 11.4462 24.8828 11.2369ZM9.47984 6.5L12.5125 8.775C12.6531 8.88048 12.8242 8.9375 13 8.9375H20.3125V10.5625H7.08602C6.74494 10.5625 6.41251 10.6698 6.13581 10.8692C5.8591 11.0686 5.65216 11.35 5.5443 11.6736L4.0625 16.118V6.5H9.47984Z" fill="black"/>
</g>
</svg>
