<svg width="34" height="34" viewBox="0 0 34 34" fill="none" xmlns="http://www.w3.org/2000/svg">
<g id="share-network-fill">
<path id="Vector" d="M25.7555 23.885C25.7556 24.3776 25.6478 24.8641 25.4398 25.3106C25.2318 25.7571 24.9285 26.1526 24.5513 26.4694C24.1741 26.7862 23.7322 27.0166 23.2564 27.1444C22.7807 27.2722 22.2828 27.2944 21.7976 27.2093C21.3124 27.1242 20.8517 26.9339 20.4478 26.6519C20.044 26.3698 19.7068 26.0028 19.4599 25.5766C19.2131 25.1504 19.0625 24.6753 19.0188 24.1847C18.9752 23.6941 19.0394 23.1999 19.2071 22.7367L14.2384 19.545C13.7638 20.0104 13.1624 20.3254 12.5095 20.4503C11.8566 20.5753 11.1813 20.5047 10.5684 20.2474C9.95552 19.9901 9.43226 19.5575 9.06428 19.004C8.6963 18.4505 8.5 17.8006 8.5 17.136C8.5 16.4713 8.6963 15.8215 9.06428 15.2679C9.43226 14.7144 9.95552 14.2819 10.5684 14.0246C11.1813 13.7673 11.8566 13.6967 12.5095 13.8216C13.1624 13.9466 13.7638 14.2615 14.2384 14.7269L19.2071 11.5399C18.9226 10.7581 18.9361 9.89901 19.2451 9.12662C19.5541 8.35424 20.1369 7.72276 20.8821 7.35285C21.6273 6.98295 22.4827 6.90055 23.2848 7.12141C24.087 7.34226 24.7796 7.85088 25.2304 8.55008C25.6811 9.24928 25.8584 10.09 25.7284 10.9117C25.5984 11.7333 25.1701 12.4783 24.5255 13.0042C23.8808 13.5301 23.065 13.8 22.2338 13.7625C21.4027 13.7249 20.6145 13.3825 20.0199 12.8006L15.0512 15.9924C15.3197 16.7344 15.3197 17.547 15.0512 18.2889L20.0199 21.4807C20.4943 21.0165 21.0951 20.7024 21.7471 20.5778C22.3991 20.4533 23.0733 20.5237 23.6855 20.7803C24.2977 21.0369 24.8205 21.4683 25.1887 22.0206C25.5569 22.5728 25.7541 23.2213 25.7555 23.885Z" fill="#B8C9DF"/>
</g>
</svg>
